<?xml version="1.0" encoding="UTF-8" standalone="no"?>
<!-- Created with Inkscape (http://www.inkscape.org/) -->

<svg
   xmlns:dc="http://purl.org/dc/elements/1.1/"
   xmlns:cc="http://creativecommons.org/ns#"
   xmlns:rdf="http://www.w3.org/1999/02/22-rdf-syntax-ns#"
   xmlns:svg="http://www.w3.org/2000/svg"
   xmlns="http://www.w3.org/2000/svg"
   xmlns:sodipodi="http://sodipodi.sourceforge.net/DTD/sodipodi-0.dtd"
   xmlns:inkscape="http://www.inkscape.org/namespaces/inkscape"
   width="24"
   height="24"
   viewBox="0 0 6.35 6.3500002"
   version="1.1"
   id="svg60"
   inkscape:version="0.92.5 (2060ec1f9f, 2020-04-08)"
   sodipodi:docname="icon.svg"
   inkscape:export-filename="/home/tomsneddon/Downloads/wordpress/2022/1018/icon-128x128png.png"
   inkscape:export-xdpi="512"
   inkscape:export-ydpi="512">
  <defs
     id="defs54">
    <clipPath
       id="ytp-svg-volume-animation-mask">
      <path
         d="m 14.35,-0.14 -5.86,5.86 20.73,20.78 5.86,-5.91 z"
         id="path910" />
      <path
         d="M 7.07,6.87 -1.11,15.33 19.61,36.11 27.80,27.60 z"
         id="path912" />
      <path
         class="ytp-svg-volume-animation-mover"
         d="M 9.09,5.20 6.47,7.88 26.82,28.77 29.66,25.99 z"
         transform="translate(0, 0)"
         id="path914" />
    </clipPath>
    <clipPath
       id="ytp-svg-volume-animation-slash-mask">
      <path
         class="ytp-svg-volume-animation-mover"
         d="m -11.45,-15.55 -4.44,4.51 20.45,20.94 4.55,-4.66 z"
         transform="translate(0, 0)"
         id="path917" />
    </clipPath>
  </defs>
  <sodipodi:namedview
     id="base"
     pagecolor="#ffffff"
     bordercolor="#666666"
     borderopacity="1.0"
     inkscape:pageopacity="0.0"
     inkscape:pageshadow="2"
     inkscape:zoom="4.2760417"
     inkscape:cx="2.2483233"
     inkscape:cy="29.627043"
     inkscape:document-units="mm"
     inkscape:current-layer="layer1"
     showgrid="false"
     units="px"
     inkscape:window-width="1920"
     inkscape:window-height="1009"
     inkscape:window-x="0"
     inkscape:window-y="0"
     inkscape:window-maximized="1" />
  <metadata
     id="metadata57">
    <rdf:RDF>
      <cc:Work
         rdf:about="">
        <dc:format>image/svg+xml</dc:format>
        <dc:type
           rdf:resource="http://purl.org/dc/dcmitype/StillImage" />
        <dc:title />
      </cc:Work>
    </rdf:RDF>
  </metadata>
  <g
     inkscape:label="Layer 1"
     inkscape:groupmode="layer"
     id="layer1"
     transform="translate(0,-290.64998)">
    <g
       id="g27"
       transform="matrix(0.00634855,0,0,0.00634855,-0.01840984,290.58657)">
      <path
         transform="scale(5.12)"
         d="m 5.4355469,3.625 c -1.4235022,4e-7 -2.1367188,0.7112637 -2.1367188,2.1347656 v 3.6386719 c 0,1.4235025 0.7132166,2.1347655 2.1367188,2.1347655 H 45.890625 c 1.423503,0 2.136719,-0.711263 2.136719,-2.1347655 V 5.7597656 C 48.027344,4.336263 47.314128,3.625 45.890625,3.625 Z M 105.21875,6.4765625 c -2.51511,0.1002401 -5.14333,1.1920116 -7.730469,2.6601563 -3.449535,1.9575482 -6.825676,4.5830142 -8.513672,7.2343752 -1.688015,2.651384 -1.688265,5.326951 -0.683593,8.126953 1.00467,2.8 3.013947,5.724484 5.361328,7.029297 2.347408,1.304812 5.033002,0.990326 6.650386,0.171875 1.61738,-0.818451 2.16674,-2.14177 1.1836,-3.580078 -0.98315,-1.438262 -3.499273,-2.990403 -4.718752,-4.697266 -1.219437,-1.706861 -1.140322,-3.577942 0.388672,-5.492187 1.529,-1.914247 4.50952,-3.876327 7.41797,-4.205079 2.90845,-0.328751 5.81327,1.008942 7.83789,1.244141 2.02462,0.235222 3.20336,-0.616549 2.32422,-2.525391 -0.87915,-1.908819 -3.81505,-4.875683 -7.04492,-5.7148434 -0.80748,-0.20979 -1.63429,-0.2853665 -2.47266,-0.2519531 z M 13.345703,12.666016 A 29.480824,29.480824 0 0 0 6.5644531,31.060547 h -0.00586 v 18.035156 c 0,0.04466 0.037571,0.08203 0.083984,0.08203 H 20.53125 a 0.08274431,0.08274431 0 0 0 0.08398,-0.08203 v -2.271484 a 19.822627,19.822627 0 0 1 -7.183593,-15.236328 19.822627,19.822627 0 0 1 0.177734,-2.494141 19.822627,19.822627 0 0 1 0.111328,-0.666016 19.822627,19.822627 0 0 1 0.396485,-1.871093 19.822627,19.822627 0 0 1 0.166015,-0.601563 19.822627,19.822627 0 0 1 0.798828,-2.21875 19.822627,19.822627 0 0 1 0.03516,-0.0918 19.822627,19.822627 0 0 1 1.251953,-2.386719 v -0.0059 a 19.822627,19.822627 0 0 1 11.019531,-8.585937 z m 48.566406,3.679687 -4.216797,6.314453 a 19.544625,19.544625 0 0 1 2.208985,8.980469 19.544625,19.544625 0 0 1 -4.251953,12.167969 v 4.458984 a 0.08219935,0.08219935 0 0 0 0.08398,0.08398 h 0.613281 a 19.339785,15.377503 0 0 0 8.869141,-5.90625 V 24.376953 l 3.431641,-8.03125 z m 11.042969,0 -3.43164,8.03125 h 3.117187 v 0.0059 h 7.439453 V 24.375 h 4.435547 c -0.960277,-2.754928 -0.940334,-5.391829 0.722656,-8.003906 0.0054,-0.0085 0.01213,-0.0169 0.01758,-0.02539 z m 33.498042,10.5625 c -0.95148,-0.02048 -1.50196,0.92316 -1.5664,2.386719 -0.0896,2.036273 0.76935,5.118312 -0.0176,7.9375 -0.4931,1.766605 -1.62308,3.45734 -2.92383,4.771484 l 7.33789,1.625 c 1.94525,-2.69673 3.25861,-5.512416 2.98828,-8.363281 -0.31503,-3.322217 -2.77666,-6.691826 -4.52148,-7.863281 -0.49072,-0.329434 -0.92454,-0.486104 -1.29688,-0.494141 z M 76.375,27.269531 c -2.490065,0 -3.734375,1.24431 -3.734375,3.734375 v 5.595703 c 0,2.490065 1.24431,3.736328 3.734375,3.736329 2.490064,-10e-7 3.734375,-1.246264 3.734375,-3.736329 v -5.595703 c 0,-2.490065 -1.244311,-3.734375 -3.734375,-3.734375 z m 12.097656,9.994141 c -0.725494,0.03638 -1.430127,0.501135 -2.029297,1.326172 -1.065164,1.466713 -1.801785,4.068799 -0.886718,6.59375 0.91505,2.524998 3.483193,4.97314 6.08789,6.410156 2.604672,1.436988 5.246823,1.862209 8.132813,0.617188 2.271426,-0.979924 4.691916,-2.996092 6.830076,-5.31836 L 96.248047,44.601562 c -0.797926,-0.145734 -1.531838,-0.550662 -2.193359,-1.205078 -1.491307,-1.475296 -2.624985,-4.20698 -3.888672,-5.40625 -0.552873,-0.524691 -1.129092,-0.754879 -1.69336,-0.726562 z M 65.927734,95.900391 a 14.10081,14.10081 0 0 0 -3.142578,0.287109 14.10081,14.10081 0 0 0 -10.960937,16.66211 14.10081,14.10081 0 0 0 16.662109,10.95703 14.10081,14.10081 0 0 0 5.427734,-2.5957 16.312241,16.312241 0 0 1 -0.259765,0.27148 l 0.01172,0.0605 c 0.01629,-0.0153 0.03468,-0.0293 0.05078,-0.0449 l 22.326172,14.64648 -18.160157,16.77539 h 0.0078 L 66.080065,163.832 c -0.264902,-0.18295 -0.547432,-0.3361 -0.830078,-0.49023 -0.282648,-0.15414 -0.566799,-0.30827 -0.867188,-0.4336 -0.282641,-0.15413 -0.582429,-0.27898 -0.882812,-0.40429 -0.300389,-0.12532 -0.594303,-0.22983 -0.917969,-0.34961 -0.294847,-0.10204 -0.613515,-0.19648 -0.93164,-0.29297 -0.318133,-0.0965 -0.630452,-0.17076 -0.9375,-0.22071 -0.312586,-0.0732 -0.644118,-0.11607 -0.951172,-0.16601 -0.330324,-0.0444 -0.636143,-0.0941 -0.960938,-0.11523 l -0.974609,-0.0664 c -0.324793,-0.0211 -0.645274,-0.0176 -0.958984,0.008 -0.319252,0.002 -0.655042,0.0331 -0.96875,0.0586 -0.313709,0.0255 -0.645274,0.08 -0.958985,0.10546 -0.308187,0.0487 -0.638771,0.10183 -0.941406,0.17383 l -0.933594,0.22266 c -0.297113,0.0952 -0.620539,0.17247 -0.912109,0.29101 -0.291567,0.11852 -0.612735,0.21935 -0.904297,0.33789 -0.291563,0.11856 -0.600697,0.26635 -0.886719,0.40821 -0.286023,0.14184 -0.571068,0.28219 -0.851562,0.44726 l -0.84375,0.49805 c -0.280487,0.16512 -0.531373,0.34692 -0.800782,0.55859 -0.251664,0.18287 -0.521451,0.39543 -0.767578,0.60157 -0.246127,0.20613 -0.491832,0.41121 -0.732422,0.64062 -0.240593,0.22942 -0.456677,0.45222 -0.697265,0.68164 -0.217309,0.22388 -0.430805,0.47354 -0.642578,0.72071 -0.211772,0.24716 -0.399237,0.48737 -0.605469,0.75781 l -0.548828,0.79492 c -0.182953,0.2649 -0.338053,0.54939 -0.492188,0.83203 l -0.460937,0.8457 c -0.154137,0.28264 -0.278981,0.58244 -0.404297,0.88282 -0.12532,0.30038 -0.253432,0.60359 -0.355469,0.89843 -0.102039,0.29485 -0.196473,0.61156 -0.292969,0.92969 -0.0965,0.31813 -0.17092,0.62882 -0.24414,0.94141 -0.07323,0.31258 -0.121631,0.62084 -0.166016,0.95117 -0.04441,0.33034 -0.09415,0.63614 -0.115234,0.96094 l -0.0625,0.97656 c -0.02111,0.32479 -0.02168,0.64364 -0.01953,0.96289 0.0021,0.31926 0.0276,0.63175 0.05859,0.96875 0.02543,0.31371 0.05676,0.65276 0.105469,0.96094 0.04872,0.30817 0.101832,0.63877 0.173828,0.9414 l 0.222656,0.93164 c 0.072,0.30265 0.172461,0.62251 0.291016,0.91407 0.118557,0.29156 0.219332,0.61274 0.337891,0.90429 0.118558,0.29157 0.26816,0.59906 0.386718,0.89063 0.14184,0.28602 0.284102,0.57303 0.449219,0.85351 l 0.494141,0.8418 c 0.165115,0.28049 0.34676,0.53169 0.535156,0.80664 0.182857,0.25167 0.395423,0.52146 0.601562,0.76758 0.206143,0.24613 0.411208,0.49183 0.640626,0.73242 0.229419,0.24059 0.456123,0.45863 0.685546,0.69922 0.223877,0.21732 0.469635,0.42885 0.716797,0.64063 0.24716,0.21176 0.487373,0.39923 0.757813,0.60546 l 0.794922,0.55079 c 0.264902,0.18295 0.549709,0.33625 0.83789,0.51367 l 0.845703,0.46093 c 0.282649,0.15414 0.58243,0.27898 0.882813,0.4043 0.300389,0.12532 0.603592,0.25148 0.898437,0.35352 0.29485,0.10204 0.611561,0.19842 0.929688,0.29492 0.318123,0.0965 0.628818,0.17092 0.941406,0.24414 0.312592,0.0732 0.626699,0.14506 0.957031,0.18945 0.307051,0.0499 0.636145,0.0941 0.960938,0.11524 l 0.976562,0.0644 c 0.324793,0.0211 0.643641,0.0197 0.962891,0.0176 0.319254,-0.002 0.633715,-0.0276 0.970703,-0.0586 0.313719,-0.0254 0.648856,-0.0568 0.957031,-0.10546 0.308174,-0.0487 0.63908,-0.10363 0.947266,-0.15235 0.308174,-0.0487 0.636488,-0.12541 0.933594,-0.2207 0.302631,-0.072 0.620863,-0.1723 0.917969,-0.26758 0.297091,-0.0953 0.61274,-0.22129 0.904296,-0.33984 0.291569,-0.11857 0.60656,-0.24097 0.892578,-0.38281 l 0.859376,-0.42579 c 0.286024,-0.14183 0.559357,-0.32903 0.839843,-0.49414 0.280492,-0.16511 0.531696,-0.35066 0.806641,-0.53906 0.274949,-0.1884 0.521771,-0.39331 0.773437,-0.57617 0.246127,-0.20614 0.491838,-0.41316 0.732422,-0.64258 0.24059,-0.22942 0.46417,-0.42894 0.699219,-0.68164 0.235057,-0.2527 0.452135,-0.47908 0.640625,-0.7207 0.211771,-0.24716 0.422516,-0.49292 0.605469,-0.75782 0.182949,-0.2649 0.396646,-0.51227 0.550781,-0.79492 0.154137,-0.28264 0.359859,-0.55118 0.519531,-0.81054 l 0.460938,-0.84961 c 0.154133,-0.28264 0.280927,-0.58243 0.40625,-0.88282 0.125316,-0.30038 0.251476,-0.59968 0.353515,-0.89453 0.102036,-0.29484 0.196786,-0.61531 0.298829,-0.91015 0.09649,-0.31813 0.168968,-0.62882 0.242187,-0.94141 0.07322,-0.31259 0.147018,-0.6267 0.191406,-0.95703 0.04995,-0.30705 0.09623,-0.63646 0.140625,-0.9668 0.04451,-0.33032 0.06465,-0.65535 0.0625,-0.97461 0.02113,-0.32479 0.01973,-0.64368 0.01758,-0.96289 -0.0022,-0.31925 -0.0042,-0.63762 -0.03516,-0.97461 -0.03097,-0.33699 -0.05675,-0.65276 -0.105469,-0.96094 -0.04872,-0.30817 -0.10363,-0.63908 -0.152343,-0.94726 -0.04872,-0.30818 -0.127379,-0.63454 -0.222657,-0.93164 -0.072,-0.30263 -0.172295,-0.62282 -0.267578,-0.91992 -0.09527,-0.2971 -0.21917,-0.61111 -0.314453,-0.90821 -0.118557,-0.29156 -0.242924,-0.60655 -0.384766,-0.89257 l -0.423828,-0.85743 26.654297,-24.6289 -0.002,-0.006 5.005866,-4.625 h 15.0332 a 14.100809,14.100809 0 0 0 12.48438,7.92383 14.100809,14.100809 0 0 0 14.09961,-14.09961 A 14.100809,14.100809 0 0 0 130.69727,120.20898 14.100809,14.100809 0 0 0 118.28125,128 H 98.277344 L 78.669922,115.13477 a 14.10081,14.10081 0 0 0 0.773437,-7.98829 14.10081,14.10081 0 0 0 -13.515625,-11.246089 z"
         style="display:inline;stroke-width:0.0524613"
         id="path2-3"
         inkscape:connector-curvature="0" />
      <path
         style="fill:#ff0000;stroke-width:0.26860201"
         inkscape:connector-curvature="0"
         d="m 204.61486,242.41814 a 18.067947,18.067947 0 0 1 -24.5692,-1.4829 l -68.48055,-79.44641 a 18.067947,18.067947 0 0 1 10.4063,-28.72305 l 7.49935,-1.84063 -0.21927,-0.25426 69.14335,-17.26459 69.12917,-17.266335 -27.2648,65.848895 -27.26434,65.83529 -0.0657,-0.0763 -2.9201,7.1531 a 18.067947,18.067947 0 0 1 -5.39423,7.51715 z m 1.20527,-53.2497 a 7.7952245,7.7952245 0 0 0 2.32054,-3.24667 l 1.25875,-3.09531 0.04,0.0462 11.75713,-28.40008 11.76585,-28.42089 -29.83159,7.46226 -29.82379,7.44063 0.0864,0.1001 -3.24714,0.78859 a 7.7952245,7.7952245 0 0 0 -4.47507,12.40702 l 29.53837,34.2683 a 7.7952245,7.7952245 0 0 0 10.60407,0.64222 z"
         p-id="1455"
         id="path6" />
      <path
         transform="scale(5.12)"
         d="m 47.09375,58.175781 c -0.613006,0.02199 -1.231304,0.166143 -1.822266,0.441407 C 34.076705,63.830791 24.78748,72.201318 18.40625,82.828125 12.102446,93.326021 9.0688973,105.31582 9.6367188,117.5 c 0.076332,1.63963 0.9801052,3.04602 2.2890622,3.83203 a 4.6997557,4.6997557 0 0 0 2.648438,0.66602 c 2.605267,-0.12132 4.619441,-2.33234 4.498047,-4.9375 -0.480689,-10.31802 2.087804,-20.473157 7.429687,-29.369144 5.407565,-9.005342 13.275899,-16.098461 22.755859,-20.513672 0.886514,-0.412918 1.586274,-1.067576 2.054688,-1.847656 0.156135,-0.260027 0.287166,-0.53256 0.390625,-0.816406 0.413836,-1.135375 0.392375,-2.429221 -0.158203,-3.611328 -0.82544,-1.772918 -2.612155,-2.792536 -4.451172,-2.726563 z m 82.34961,14.527344 C 115.473,72.958613 102.6707,77.764074 92.441406,85.699219 l -0.705078,0.527343 c -1.748279,1.31618 -2.851459,3.451106 -2.808594,5.794922 0.07209,3.942498 3.357866,7.082409 7.330078,7.009766 1.657196,-0.03031 3.189602,-0.598984 4.400388,-1.564453 l 0.73438,-0.556641 c 7.83426,-6.060457 17.62969,-9.726476 28.31445,-9.921875 26.28614,-0.480719 48.10015,20.239779 48.57617,46.269529 0.47599,26.02682 -20.56723,47.53686 -46.85351,48.01758 -10.68507,0.19541 -20.60795,-3.11367 -28.65821,-8.88086 l -0.7539,-0.53125 c -1.24528,-0.92056 -2.796086,-1.43266 -4.453127,-1.40234 -3.972062,0.0726 -7.142412,3.33094 -7.070312,7.27344 0.04281,2.34089 1.224298,4.43807 3.019531,5.68945 l 0.724609,0.5 c 10.512589,7.55583 23.482769,11.89222 37.453129,11.63672 34.25782,-0.62651 61.49718,-28.64972 60.87695,-62.56446 -0.62023,-33.914752 -28.86702,-60.919471 -63.125,-60.292965 z m -73.759766,3.873047 c -0.613056,0.02176 -1.231275,0.164207 -1.822266,0.439453 -7.521037,3.50274 -13.762289,9.127141 -18.048828,16.265625 -4.234479,7.05177 -6.270096,15.10712 -5.888672,23.29297 0.07643,1.63971 0.978022,3.044 2.28711,3.83008 a 4.7005213,4.7005213 0 0 0 2.648437,0.66797 c 2.605047,-0.12146 4.619432,-2.33235 4.498047,-4.9375 -0.294516,-6.31983 1.278154,-12.54027 4.550781,-17.990239 3.312797,-5.516902 8.133024,-9.864144 13.939453,-12.568359 0.886522,-0.412904 1.584594,-1.064154 2.052735,-1.84375 0.156052,-0.259865 0.28716,-0.534508 0.390625,-0.81836 0.41389,-1.135394 0.394207,-2.427335 -0.15625,-3.609374 -0.825723,-1.773197 -2.612005,-2.793805 -4.451172,-2.728516 z m 74.177736,18.984375 c -7.14294,0.130627 -13.79315,2.165543 -19.50391,5.585933 l -0.64844,0.44336 c -2.32121,1.2116 -3.87684,3.64145 -3.82617,6.41211 0.0721,3.9425 3.35945,7.08488 7.35938,7.01172 1.37125,-0.0251 2.64965,-0.42214 3.72265,-1.09765 l 1.30078,-0.79883 c 3.5077,-2.00656 7.54382,-3.19261 11.85743,-3.27149 13.54366,-0.24768 25.0577,10.43132 25.30273,23.83008 0.24504,13.39876 -10.8704,24.4945 -24.41406,24.74219 -4.31361,0.0789 -8.39002,-0.96437 -11.96875,-2.8418 l -1.33008,-0.74609 c -1.09718,-0.63876 -2.39063,-0.98601 -3.76172,-0.96094 -3.99978,0.0732 -7.1678,3.3329 -7.0957,7.27539 0.0507,2.77067 1.69263,5.1407 4.05664,6.26953 l 0.66601,0.41797 c 5.83202,3.20945 12.55043,5.00172 19.69336,4.87109 21.51489,-0.39346 38.82925,-17.9727 38.43946,-39.2871 -0.3898,-21.3144 -18.33441,-38.24894 -39.84961,-37.855473 z"
         inkscape:label="path2554"
         style="display:inline;opacity:1;fill:#008000;stroke-width:0.154011"
         id="path2554"
         inkscape:connector-curvature="0" />
    </g>
  </g>
</svg>
